<svg xmlns="http://www.w3.org/2000/svg" fill="none" viewBox="0 0 32 32" height="1024" width="1024">
<path fill="url(#paint0_radial_31_15)" d="M15.9989 29.9978C25.3333 29.9978 29.9978 23.7303 29.9978 15.9989C29.9978 8.26751 25.3333 2 15.9989 2C6.66443 2 2 8.26751 2 15.9989C2 23.7303 6.66443 29.9978 15.9989 29.9978Z"></path>
<path fill="url(#paint1_radial_31_15)" d="M15.9989 29.9978C25.3333 29.9978 29.9978 23.7303 29.9978 15.9989C29.9978 8.26751 25.3333 2 15.9989 2C6.66443 2 2 8.26751 2 15.9989C2 23.7303 6.66443 29.9978 15.9989 29.9978Z"></path>
<path fill="url(#paint2_radial_31_15)" d="M15.9989 29.9978C25.3333 29.9978 29.9978 23.7303 29.9978 15.9989C29.9978 8.26751 25.3333 2 15.9989 2C6.66443 2 2 8.26751 2 15.9989C2 23.7303 6.66443 29.9978 15.9989 29.9978Z"></path>
<path fill-opacity="0.6" fill="url(#paint3_radial_31_15)" d="M15.9989 29.9978C25.3333 29.9978 29.9978 23.7303 29.9978 15.9989C29.9978 8.26751 25.3333 2 15.9989 2C6.66443 2 2 8.26751 2 15.9989C2 23.7303 6.66443 29.9978 15.9989 29.9978Z"></path>
<path fill="url(#paint4_radial_31_15)" d="M15.9989 29.9978C25.3333 29.9978 29.9978 23.7303 29.9978 15.9989C29.9978 8.26751 25.3333 2 15.9989 2C6.66443 2 2 8.26751 2 15.9989C2 23.7303 6.66443 29.9978 15.9989 29.9978Z"></path>
<path fill="url(#paint5_radial_31_15)" d="M15.9989 29.9978C25.3333 29.9978 29.9978 23.7303 29.9978 15.9989C29.9978 8.26751 25.3333 2 15.9989 2C6.66443 2 2 8.26751 2 15.9989C2 23.7303 6.66443 29.9978 15.9989 29.9978Z"></path>
<path fill="url(#paint6_radial_31_15)" d="M15.9989 29.9978C25.3333 29.9978 29.9978 23.7303 29.9978 15.9989C29.9978 8.26751 25.3333 2 15.9989 2C6.66443 2 2 8.26751 2 15.9989C2 23.7303 6.66443 29.9978 15.9989 29.9978Z"></path>
<path fill="url(#paint7_radial_31_15)" d="M15.9989 29.9978C25.3333 29.9978 29.9978 23.7303 29.9978 15.9989C29.9978 8.26751 25.3333 2 15.9989 2C6.66443 2 2 8.26751 2 15.9989C2 23.7303 6.66443 29.9978 15.9989 29.9978Z"></path>
<g filter="url(#filter0_f_31_15)" opacity="0.5">
<path stroke-linecap="round" stroke-width="2" stroke="#9A4609" d="M7.5 11.5C7.5 11.5 7.75 9.5 10 9.5C12.25 9.5 12.5 11.5 12.5 11.5"></path>
</g>
<g filter="url(#filter1_f_31_15)" opacity="0.5">
<path stroke-linecap="round" stroke-width="2" stroke="#9A4609" d="M18.5 11.5C18.5 11.5 19 9.5 21 9.5C23 9.5 23.5 11.5 23.5 11.5"></path>
</g>
<path stroke-linejoin="round" stroke-linecap="round" stroke-width="2" stroke="#43273B" d="M8 11C8 11 8.25 9 10.5 9C12.75 9 13 11 13 11"></path>
<g filter="url(#filter2_f_31_15)" opacity="0.26">
<path stroke-linejoin="round" stroke-linecap="round" stroke-width="0.75" stroke="white" d="M8.25 10.75C8.25 10.75 8.5 8.75 10.75 8.75C13 8.75 13.25 10.75 13.25 10.75"></path>
</g>
<path stroke-linejoin="round" stroke-linecap="round" stroke-width="2" stroke="#43273B" d="M19 11C19 11 19.5 9 21.5 9C23.5 9 24 11 24 11"></path>
<g filter="url(#filter3_f_31_15)" opacity="0.26">
<path stroke-linejoin="round" stroke-linecap="round" stroke-width="0.75" stroke="white" d="M19.25 10.75C19.25 10.75 19.5 8.75 21.75 8.75C24 8.75 24.25 10.75 24.25 10.75"></path>
</g>
<path fill="url(#paint8_radial_31_15)" d="M11.62 18.5H18.1L23.5 21.5L19.72 29.5L10 26L11.62 18.5Z"></path>
<path fill="url(#paint9_linear_31_15)" d="M18.3683 22.3683L15.5 19.5L23.5 16L24.455 18.292C25.2894 20.2946 24.2473 22.5842 22.1892 23.2703C20.8475 23.7175 19.3683 23.3683 18.3683 22.3683Z"></path>
<path stroke-linecap="round" stroke-width="2" stroke="url(#paint10_radial_31_15)" d="M9 16C9.5 16.6667 11.5 18.5 16 18.5C20.5 18.5 22.5 16.6667 23 16"></path>
<path fill="url(#paint11_radial_31_15)" d="M18.1755 22.1755L18.3683 22.3683C19.3683 23.3683 20.8475 23.7175 22.1892 23.2703C24.2473 22.5842 25.2894 20.2946 24.455 18.292L24.1878 17.6508C23.5591 17.2393 22.8075 17 22 17C21.5762 17 21.1679 17.0659 20.7846 17.188L20.0286 17.5187C18.8173 18.2062 18 19.5076 18 21C18 21.4091 18.0614 21.8038 18.1755 22.1755Z" clip-rule="evenodd" fill-rule="evenodd"></path>
<defs>
<filter color-interpolation-filters="sRGB" filterUnits="userSpaceOnUse" height="7.00012" width="10" y="7" x="5" id="filter0_f_31_15">
<feFlood result="BackgroundImageFix" flood-opacity="0"></feFlood>
<feBlend result="shape" in2="BackgroundImageFix" in="SourceGraphic" mode="normal"></feBlend>
<feGaussianBlur result="effect1_foregroundBlur_31_15" stdDeviation="0.75"></feGaussianBlur>
</filter>
<filter color-interpolation-filters="sRGB" filterUnits="userSpaceOnUse" height="7.00024" width="10.0005" y="7" x="15.9998" id="filter1_f_31_15">
<feFlood result="BackgroundImageFix" flood-opacity="0"></feFlood>
<feBlend result="shape" in2="BackgroundImageFix" in="SourceGraphic" mode="normal"></feBlend>
<feGaussianBlur result="effect1_foregroundBlur_31_15" stdDeviation="0.75"></feGaussianBlur>
</filter>
<filter color-interpolation-filters="sRGB" filterUnits="userSpaceOnUse" height="5.75006" width="8.75" y="6.875" x="6.375" id="filter2_f_31_15">
<feFlood result="BackgroundImageFix" flood-opacity="0"></feFlood>
<feBlend result="shape" in2="BackgroundImageFix" in="SourceGraphic" mode="normal"></feBlend>
<feGaussianBlur result="effect1_foregroundBlur_31_15" stdDeviation="0.75"></feGaussianBlur>
</filter>
<filter color-interpolation-filters="sRGB" filterUnits="userSpaceOnUse" height="5.75006" width="8.75" y="6.875" x="17.375" id="filter3_f_31_15">
<feFlood result="BackgroundImageFix" flood-opacity="0"></feFlood>
<feBlend result="shape" in2="BackgroundImageFix" in="SourceGraphic" mode="normal"></feBlend>
<feGaussianBlur result="effect1_foregroundBlur_31_15" stdDeviation="0.75"></feGaussianBlur>
</filter>
<radialGradient gradientTransform="translate(25.5 9) rotate(132.839) scale(37.5033)" gradientUnits="userSpaceOnUse" r="1" cy="0" cx="0" id="paint0_radial_31_15">
<stop stop-color="#FFF478"></stop>
<stop stop-color="#FFB02E" offset="0.474827"></stop>
<stop stop-color="#F70A8D" offset="1"></stop>
</radialGradient>
<radialGradient gradientTransform="translate(25.5 9) rotate(131.878) scale(38.9487)" gradientUnits="userSpaceOnUse" r="1" cy="0" cx="0" id="paint1_radial_31_15">
<stop stop-color="#FFF478"></stop>
<stop stop-color="#FFB02E" offset="0.474827"></stop>
<stop stop-color="#F70A8D" offset="1"></stop>
</radialGradient>
<radialGradient gradientTransform="translate(16 12.5) rotate(101.31) scale(17.8466 22.8581)" gradientUnits="userSpaceOnUse" r="1" cy="0" cx="0" id="paint2_radial_31_15">
<stop stop-opacity="0" stop-color="#F59639" offset="0.787821"></stop>
<stop stop-color="#FF7DCE" offset="0.972509"></stop>
</radialGradient>
<radialGradient gradientTransform="translate(18 14) rotate(135) scale(41.0122)" gradientUnits="userSpaceOnUse" r="1" cy="0" cx="0" id="paint3_radial_31_15">
<stop stop-opacity="0" offset="0.314853"></stop>
<stop offset="1"></stop>
</radialGradient>
<radialGradient gradientTransform="translate(16 17) rotate(77.692) scale(28.1469)" gradientUnits="userSpaceOnUse" r="1" cy="0" cx="0" id="paint4_radial_31_15">
<stop stop-opacity="0" stop-color="#7D6133" offset="0.507903"></stop>
<stop stop-color="#715B32" offset="1"></stop>
</radialGradient>
<radialGradient gradientTransform="translate(16.5 16.5) rotate(55.7131) scale(13.3135 9.65032)" gradientUnits="userSpaceOnUse" r="1" cy="0" cx="0" id="paint5_radial_31_15">
<stop stop-color="#FFB849"></stop>
<stop stop-opacity="0" stop-color="#FFB847" offset="1"></stop>
</radialGradient>
<radialGradient gradientTransform="translate(20.5 18) rotate(9.86581) scale(11.6726)" gradientUnits="userSpaceOnUse" r="1" cy="0" cx="0" id="paint6_radial_31_15">
<stop stop-color="#FFA64B"></stop>
<stop stop-opacity="0" stop-color="#FFAE46" offset="0.900412"></stop>
</radialGradient>
<radialGradient gradientTransform="translate(17.5 15) rotate(43.9708) scale(59.0529)" gradientUnits="userSpaceOnUse" r="1" cy="0" cx="0" id="paint7_radial_31_15">
<stop stop-opacity="0" offset="0.185425"></stop>
<stop stop-opacity="0.4" offset="1"></stop>
</radialGradient>
<radialGradient gradientTransform="translate(19.72 18.5) rotate(129.007) scale(7.72137 5.2163)" gradientUnits="userSpaceOnUse" r="1" cy="0" cx="0" id="paint8_radial_31_15">
<stop stop-color="#F63711"></stop>
<stop stop-opacity="0" stop-color="#E24A2C" offset="1"></stop>
</radialGradient>
<linearGradient gradientUnits="userSpaceOnUse" y2="16.0057" x2="20.3827" y1="22.5" x1="23.5" id="paint9_linear_31_15">
<stop stop-color="#D40F31"></stop>
<stop stop-color="#FF2375" offset="0.340515"></stop>
<stop stop-color="#FF278E" offset="1"></stop>
</linearGradient>
<radialGradient gradientTransform="translate(16 14) rotate(90) scale(6 9.18387)" gradientUnits="userSpaceOnUse" r="1" cy="0" cx="0" id="paint10_radial_31_15">
<stop stop-color="#4E2553" offset="0.517632"></stop>
<stop stop-color="#5B4852" offset="0.702876"></stop>
<stop stop-color="#4E2553" offset="1"></stop>
<stop stop-color="#4E2553" offset="1"></stop>
</radialGradient>
<radialGradient gradientTransform="translate(22.6667 21) rotate(56.3099) scale(2.4037 7.2111)" gradientUnits="userSpaceOnUse" r="1" cy="0" cx="0" id="paint11_radial_31_15">
<stop stop-color="#FF7291"></stop>
<stop stop-opacity="0" stop-color="#FF7291" offset="1"></stop>
</radialGradient>
</defs>
</svg>
